<svg width="591" height="500" viewBox="0 0 591 500" fill="none" xmlns="http://www.w3.org/2000/svg">
<rect x="0.5" y="0.5" width="499" height="499" fill="white" stroke="black"/>
<line x1="3" y1="45.5" x2="500" y2="45.5" stroke="black"/>
<path d="M35.44 158V155.84H65.896C68.584 155.84 70.864 155.12 72.736 153.68C74.608 152.24 76.048 150.344 77.056 147.992C78.112 145.64 78.664 143.096 78.712 140.36H81.592V158H35.44ZM42.28 156.92V103.712H53.656V156.92H42.28ZM35.44 105.872V103.712H62.152V105.872H35.44ZM104.248 158.936C101.752 158.936 99.3998 158.456 97.1918 157.496C95.0318 156.536 93.1118 155.24 91.4318 153.608C89.7998 151.976 88.5278 150.128 87.6158 148.064C86.7038 146 86.2478 143.84 86.2478 141.584C86.2478 138.8 86.9678 136.136 88.4078 133.592C89.8478 131 91.8878 128.888 94.5278 127.256C97.1678 125.576 100.264 124.736 103.816 124.736C106.696 124.736 109.264 125.312 111.52 126.464C113.824 127.616 115.624 129.272 116.92 131.432C118.264 133.544 118.936 136.064 118.936 138.992V139.784H93.9518V137.624H108.784V133.232C108.784 129.104 107.056 127.04 103.6 127.04C102.112 127.04 100.912 127.496 99.9998 128.408C99.0878 129.32 98.4158 130.88 97.9838 133.088C97.5998 135.248 97.4078 138.224 97.4078 142.016C97.4078 145.904 97.6238 148.904 98.0558 151.016C98.4878 153.08 99.2318 154.496 100.288 155.264C101.344 156.032 102.784 156.416 104.608 156.416C107.152 156.416 109.456 155.792 111.52 154.544C113.632 153.296 115.384 151.136 116.776 148.064H119.152C118.144 151.376 116.296 154.016 113.608 155.984C110.968 157.952 107.848 158.936 104.248 158.936ZM134.424 158.864C131.592 158.864 129.264 158.12 127.44 156.632C125.616 155.144 124.704 153.176 124.704 150.728C124.704 148.424 125.52 146.432 127.152 144.752C128.832 143.072 131.184 141.8 134.208 140.936C137.232 140.024 140.76 139.568 144.792 139.568V131.144C144.792 129.896 144.336 128.912 143.424 128.192C142.512 127.472 141.312 127.112 139.824 127.112C138.576 127.112 137.496 127.352 136.584 127.832C135.72 128.312 135.288 128.936 135.288 129.704C135.288 130.328 135.528 130.88 136.008 131.36C136.536 131.792 136.8 132.512 136.8 133.52C136.8 134.768 136.296 135.872 135.288 136.832C134.328 137.792 133.152 138.272 131.76 138.272C130.368 138.272 129.216 137.792 128.304 136.832C127.392 135.872 126.936 134.696 126.936 133.304C126.936 131.672 127.56 130.208 128.808 128.912C130.056 127.616 131.784 126.608 133.992 125.888C136.2 125.12 138.696 124.736 141.48 124.736C145.32 124.736 148.488 125.432 150.984 126.824C153.48 128.168 154.728 129.944 154.728 132.152V153.104C154.728 153.536 154.872 153.92 155.16 154.256C155.496 154.592 155.904 154.76 156.384 154.76C156.768 154.76 157.176 154.592 157.608 154.256C158.088 153.92 158.736 153.296 159.552 152.384L160.992 154.04C158.352 157.256 155.352 158.864 151.992 158.864C150.024 158.864 148.464 158.408 147.312 157.496C146.208 156.584 145.464 155.384 145.08 153.896H144.792C143.928 155.144 142.584 156.296 140.76 157.352C138.984 158.36 136.872 158.864 134.424 158.864ZM139.248 154.904C140.784 154.904 142.08 154.232 143.136 152.888C144.24 151.496 144.792 149.696 144.792 147.488V141.8C141.72 141.8 139.344 142.448 137.664 143.744C135.984 145.04 135.144 146.96 135.144 149.504C135.144 151.136 135.48 152.456 136.152 153.464C136.872 154.424 137.904 154.904 139.248 154.904ZM162.073 158V155.84H167.905V127.76H162.073V125.6H177.841V131.144H178.129C179.713 128.456 181.393 126.728 183.169 125.96C184.945 125.144 186.529 124.736 187.921 124.736C190.129 124.736 191.833 125.312 193.033 126.464C194.233 127.568 194.833 129.176 194.833 131.288C194.833 133.352 194.305 134.864 193.249 135.824C192.241 136.784 190.969 137.264 189.433 137.264C188.041 137.264 186.769 136.856 185.617 136.04C184.513 135.224 183.961 134 183.961 132.368C183.961 131.408 184.105 130.712 184.393 130.28C184.729 129.848 184.897 129.512 184.897 129.272C184.897 129.176 184.849 129.104 184.753 129.056C184.705 128.96 184.561 128.912 184.321 128.912C183.553 128.912 182.641 129.416 181.585 130.424C180.577 131.432 179.689 132.752 178.921 134.384C178.201 136.016 177.841 137.792 177.841 139.712V155.84H182.521V158H162.073ZM226.071 156.92V131.504C226.071 129.104 224.991 127.904 222.831 127.904C221.247 127.904 219.807 128.552 218.511 129.848C217.215 131.144 216.183 132.92 215.415 135.176C214.647 137.384 214.263 139.904 214.263 142.736L212.823 131.576H214.551C215.511 129.464 216.879 127.808 218.655 126.608C220.479 125.36 222.783 124.736 225.567 124.736C228.687 124.736 231.207 125.504 233.127 127.04C235.047 128.528 236.007 130.376 236.007 132.584V156.92H226.071ZM198.495 158V155.84H218.943V158H198.495ZM204.327 156.92V126.752H214.263V156.92H204.327ZM221.175 158V155.84H240.543V158H221.175ZM198.495 127.76V125.6H214.263V127.76H198.495ZM267.645 158.936C264.765 158.936 262.653 158.432 261.309 157.424C260.013 156.368 259.365 154.856 259.365 152.888V127.832H253.533V125.6C255.357 125.456 257.061 124.808 258.645 123.656C260.277 122.504 261.741 121.016 263.037 119.192C264.381 117.368 265.485 115.376 266.349 113.216H269.301V125.6H277.581V127.832H269.301V151.664C269.301 153.824 270.213 154.904 272.037 154.904C272.997 154.904 273.837 154.616 274.557 154.04C275.325 153.416 276.165 152.36 277.077 150.872L278.805 151.88C277.509 154.52 275.997 156.368 274.269 157.424C272.541 158.432 270.333 158.936 267.645 158.936ZM309.25 156.92V132.224C309.25 130.544 308.962 129.416 308.386 128.84C307.81 128.216 307.042 127.904 306.082 127.904C304.498 127.904 303.034 128.552 301.69 129.848C300.394 131.144 299.362 132.92 298.594 135.176C297.826 137.384 297.442 139.904 297.442 142.736L296.002 131.576H297.73C298.69 129.464 300.058 127.808 301.834 126.608C303.658 125.36 305.938 124.736 308.674 124.736C311.842 124.736 314.386 125.504 316.306 127.04C318.226 128.528 319.186 130.376 319.186 132.584V156.92H309.25ZM281.674 158V155.84H302.122V158H281.674ZM304.354 158V155.84H323.722V158H304.354ZM287.506 156.92V104.864H297.442V156.92H287.506ZM281.674 105.872V103.712H297.442V105.872H281.674ZM346.053 158.936C343.557 158.936 341.205 158.456 338.997 157.496C336.837 156.536 334.917 155.24 333.237 153.608C331.605 151.976 330.333 150.128 329.421 148.064C328.509 146 328.053 143.84 328.053 141.584C328.053 138.8 328.773 136.136 330.213 133.592C331.653 131 333.693 128.888 336.333 127.256C338.973 125.576 342.069 124.736 345.621 124.736C348.501 124.736 351.069 125.312 353.325 126.464C355.629 127.616 357.429 129.272 358.725 131.432C360.069 133.544 360.741 136.064 360.741 138.992V139.784H335.757V137.624H350.589V133.232C350.589 129.104 348.861 127.04 345.405 127.04C343.917 127.04 342.717 127.496 341.805 128.408C340.893 129.32 340.221 130.88 339.789 133.088C339.405 135.248 339.213 138.224 339.213 142.016C339.213 145.904 339.429 148.904 339.861 151.016C340.293 153.08 341.037 154.496 342.093 155.264C343.149 156.032 344.589 156.416 346.413 156.416C348.957 156.416 351.261 155.792 353.325 154.544C355.437 153.296 357.189 151.136 358.581 148.064H360.957C359.949 151.376 358.101 154.016 355.413 155.984C352.773 157.952 349.653 158.936 346.053 158.936Z" fill="black"/>
<path d="M52.824 260.792C50.808 260.792 48.888 260.288 47.064 259.28C45.288 258.272 43.848 256.832 42.744 254.96C41.64 253.04 41.088 250.736 41.088 248.048C41.088 245.264 41.664 242.6 42.816 240.056C44.016 237.512 45.576 235.256 47.496 233.288C49.416 231.272 51.552 229.688 53.904 228.536C56.256 227.336 58.608 226.736 60.96 226.736C62.736 226.736 64.176 227.168 65.28 228.032C66.432 228.848 67.392 230.144 68.16 231.92H68.664L67.008 238.472C67.056 237.992 67.104 237.56 67.152 237.176C67.2 236.744 67.224 236.36 67.224 236.024C67.224 234.152 66.72 232.616 65.712 231.416C64.704 230.168 63.624 229.544 62.472 229.544C61.272 229.544 60.12 230 59.016 230.912C57.96 231.776 56.952 232.976 55.992 234.512C55.08 236 54.264 237.728 53.544 239.696C52.824 241.616 52.272 243.656 51.888 245.816C51.504 247.976 51.312 250.136 51.312 252.296C51.312 254.408 51.552 255.872 52.032 256.688C52.512 257.456 53.28 257.84 54.336 257.84C55.44 257.84 56.712 257.432 58.152 256.616C59.592 255.8 60.984 254.456 62.328 252.584C63.672 250.712 64.728 248.192 65.496 245.024L63.192 254.96H62.688C61.824 256.304 60.552 257.624 58.872 258.92C57.192 260.168 55.176 260.792 52.824 260.792ZM69.456 260.792C68.208 260.792 67.104 260.576 66.144 260.144C65.232 259.712 64.512 259.064 63.984 258.2C63.456 257.336 63.192 256.256 63.192 254.96C63.192 254.384 63.264 253.736 63.408 253.016C63.552 252.248 63.864 250.904 64.344 248.984L69.672 227.6H79.32L73.056 253.736C72.912 254.36 72.816 254.888 72.768 255.32C72.72 255.704 72.696 255.968 72.696 256.112C72.696 256.736 72.984 257.048 73.56 257.048C74.28 257.048 75.288 256.448 76.584 255.248C77.928 254 79.272 251.72 80.616 248.408L82.416 249.056C81.792 251.024 80.88 252.92 79.68 254.744C78.48 256.52 77.016 257.984 75.288 259.136C73.608 260.24 71.664 260.792 69.456 260.792ZM84.2115 260L91.9875 227.6H101.852L93.7875 260H84.2115ZM85.2195 229.76V227.6H100.988V229.76H85.2195ZM96.8115 247.472L100.195 233.576H100.772C102.548 231.224 104.108 229.496 105.452 228.392C106.844 227.288 108.332 226.736 109.916 226.736C111.164 226.736 112.148 227.024 112.868 227.6C113.636 228.128 114.188 228.8 114.524 229.616C114.908 230.384 115.1 231.104 115.1 231.776C115.1 232.832 114.692 233.888 113.876 234.944C113.06 236 111.932 236.528 110.492 236.528C109.484 236.528 108.644 236.288 107.972 235.808C107.3 235.28 106.7 234.776 106.172 234.296C105.692 233.816 105.188 233.576 104.66 233.576C103.988 233.576 103.268 234.056 102.5 235.016C101.732 235.976 100.964 237.2 100.195 238.688C99.4275 240.128 98.7315 241.64 98.1075 243.224C97.5315 244.808 97.0995 246.224 96.8115 247.472ZM123.26 260.792C120.908 260.792 119.228 260.24 118.22 259.136C117.26 257.984 116.78 256.688 116.78 255.248C116.78 254.576 116.852 253.784 116.996 252.872C117.14 251.912 117.284 251.12 117.428 250.496L124.628 218.672H134.276L126.212 253.736C126.068 254.36 125.972 254.864 125.924 255.248C125.876 255.632 125.852 255.896 125.852 256.04C125.852 256.952 126.332 257.408 127.292 257.408C128.204 257.408 129.38 256.808 130.82 255.608C132.308 254.408 133.796 252.248 135.284 249.128L137.084 249.776C136.172 252.224 134.972 254.264 133.484 255.896C131.996 257.528 130.364 258.752 128.588 259.568C126.86 260.384 125.084 260.792 123.26 260.792ZM117.788 229.76V227.6H139.1V229.76H117.788ZM170.91 260.936C168.414 260.936 166.086 260.528 163.926 259.712C161.766 258.896 159.87 257.72 158.238 256.184C156.606 254.648 155.31 252.848 154.35 250.784C153.438 248.672 152.982 246.344 152.982 243.8C152.982 241.304 153.438 239.024 154.35 236.96C155.31 234.848 156.606 233.048 158.238 231.56C159.87 230.024 161.766 228.848 163.926 228.032C166.086 227.168 168.414 226.736 170.91 226.736C173.406 226.736 175.734 227.168 177.894 228.032C180.054 228.848 181.95 230.024 183.582 231.56C185.262 233.048 186.558 234.848 187.47 236.96C188.43 239.024 188.91 241.304 188.91 243.8C188.91 246.344 188.43 248.672 187.47 250.784C186.558 252.848 185.262 254.648 183.582 256.184C181.95 257.72 180.054 258.896 177.894 259.712C175.734 260.528 173.406 260.936 170.91 260.936ZM170.91 258.416C172.59 258.416 173.934 258.032 174.942 257.264C175.95 256.496 176.67 255.08 177.102 253.016C177.534 250.904 177.75 247.856 177.75 243.872C177.75 239.888 177.534 236.84 177.102 234.728C176.67 232.616 175.95 231.176 174.942 230.408C173.934 229.64 172.59 229.256 170.91 229.256C169.23 229.256 167.886 229.64 166.878 230.408C165.918 231.176 165.222 232.616 164.79 234.728C164.358 236.84 164.142 239.888 164.142 243.872C164.142 247.856 164.358 250.904 164.79 253.016C165.222 255.08 165.918 256.496 166.878 257.264C167.886 258.032 169.23 258.416 170.91 258.416ZM198.713 260V225.512C198.713 221.432 199.361 217.856 200.657 214.784C201.953 211.664 203.777 209.24 206.129 207.512C208.529 205.736 211.337 204.848 214.553 204.848C217.529 204.848 219.857 205.544 221.537 206.936C223.265 208.28 224.129 209.888 224.129 211.76C224.129 213.2 223.649 214.376 222.689 215.288C221.777 216.152 220.601 216.584 219.161 216.584C218.009 216.584 216.977 216.248 216.065 215.576C215.201 214.904 214.769 213.896 214.769 212.552C214.769 211.736 214.913 211.112 215.201 210.68C215.489 210.248 215.777 209.888 216.065 209.6C216.353 209.312 216.497 208.952 216.497 208.52C216.497 207.608 215.705 207.152 214.121 207.152C212.633 207.152 211.337 207.68 210.233 208.736C209.177 209.744 208.649 211.736 208.649 214.712V260H198.713ZM192.953 260V257.84H215.921V260H192.953ZM192.737 230.48V228.32H216.425V230.48H192.737ZM242.479 260.936L230.527 229.76H226.639V227.6H245.935V229.76H241.687L247.447 246.536H247.735L254.719 227.6H257.311L265.159 246.536H265.447L270.991 229.76H265.303V227.6H278.839V229.76H273.583L262.783 260.936H260.695L252.487 240.848H252.199L244.567 260.936H242.479ZM278.87 260V257.84H284.702V229.76H278.87V227.6H294.638V233.144H294.926C296.51 230.456 298.19 228.728 299.966 227.96C301.742 227.144 303.326 226.736 304.718 226.736C306.926 226.736 308.63 227.312 309.83 228.464C311.03 229.568 311.63 231.176 311.63 233.288C311.63 235.352 311.102 236.864 310.046 237.824C309.038 238.784 307.766 239.264 306.23 239.264C304.838 239.264 303.566 238.856 302.414 238.04C301.31 237.224 300.758 236 300.758 234.368C300.758 233.408 300.902 232.712 301.19 232.28C301.526 231.848 301.694 231.512 301.694 231.272C301.694 231.176 301.646 231.104 301.55 231.056C301.502 230.96 301.358 230.912 301.118 230.912C300.35 230.912 299.438 231.416 298.382 232.424C297.374 233.432 296.486 234.752 295.718 236.384C294.998 238.016 294.638 239.792 294.638 241.712V257.84H299.318V260H278.87ZM322.249 258.92V228.752H332.185V258.92H322.249ZM316.417 260V257.84H336.865V260H316.417ZM316.417 229.76V227.6H332.185V229.76H316.417ZM326.641 219.248C325.105 219.248 323.761 218.672 322.609 217.52C321.457 216.368 320.881 215.024 320.881 213.488C320.881 211.904 321.457 210.536 322.609 209.384C323.761 208.232 325.105 207.656 326.641 207.656C328.225 207.656 329.593 208.232 330.745 209.384C331.897 210.536 332.473 211.904 332.473 213.488C332.473 215.024 331.897 216.368 330.745 217.52C329.593 218.672 328.225 219.248 326.641 219.248ZM352.801 260.936C349.921 260.936 347.809 260.432 346.465 259.424C345.169 258.368 344.521 256.856 344.521 254.888V229.832H338.689V227.6C340.513 227.456 342.217 226.808 343.801 225.656C345.433 224.504 346.897 223.016 348.193 221.192C349.537 219.368 350.641 217.376 351.505 215.216H354.457V227.6H362.737V229.832H354.457V253.664C354.457 255.824 355.369 256.904 357.193 256.904C358.153 256.904 358.993 256.616 359.713 256.04C360.481 255.416 361.321 254.36 362.233 252.872L363.961 253.88C362.665 256.52 361.153 258.368 359.425 259.424C357.697 260.432 355.489 260.936 352.801 260.936ZM370.694 258.92V228.752H380.63V258.92H370.694ZM364.862 260V257.84H385.31V260H364.862ZM364.862 229.76V227.6H380.63V229.76H364.862ZM375.086 219.248C373.55 219.248 372.206 218.672 371.054 217.52C369.902 216.368 369.326 215.024 369.326 213.488C369.326 211.904 369.902 210.536 371.054 209.384C372.206 208.232 373.55 207.656 375.086 207.656C376.67 207.656 378.038 208.232 379.19 209.384C380.342 210.536 380.918 211.904 380.918 213.488C380.918 215.024 380.342 216.368 379.19 217.52C378.038 218.672 376.67 219.248 375.086 219.248ZM415.43 258.92V233.504C415.43 231.104 414.35 229.904 412.19 229.904C410.606 229.904 409.166 230.552 407.87 231.848C406.574 233.144 405.542 234.92 404.774 237.176C404.006 239.384 403.622 241.904 403.622 244.736L402.182 233.576H403.91C404.87 231.464 406.238 229.808 408.014 228.608C409.838 227.36 412.142 226.736 414.926 226.736C418.046 226.736 420.566 227.504 422.486 229.04C424.406 230.528 425.366 232.376 425.366 234.584V258.92H415.43ZM387.854 260V257.84H408.302V260H387.854ZM393.686 258.92V228.752H403.622V258.92H393.686ZM410.534 260V257.84H429.902V260H410.534ZM387.854 229.76V227.6H403.622V229.76H387.854ZM449.649 283.328C446.529 283.328 443.745 282.848 441.297 281.888C438.849 280.976 436.929 279.728 435.537 278.144C434.193 276.608 433.521 274.904 433.521 273.032C433.521 271.112 434.169 269.456 435.465 268.064C436.809 266.672 438.465 265.592 440.433 264.824V264.536C438.369 263.768 436.737 262.784 435.537 261.584C434.337 260.384 433.737 258.728 433.737 256.616C433.737 254.456 434.385 252.656 435.681 251.216C437.025 249.728 439.041 248.744 441.729 248.264C439.857 247.304 438.369 246.008 437.265 244.376C436.161 242.696 435.609 240.728 435.609 238.472C435.609 235.976 436.257 233.864 437.553 232.136C438.849 230.408 440.601 229.088 442.809 228.176C445.065 227.216 447.537 226.736 450.225 226.736C452.769 226.736 455.097 227.144 457.209 227.96C459.369 228.728 461.121 229.88 462.465 231.416C462.993 230.024 463.713 228.872 464.625 227.96C465.585 227.048 466.761 226.592 468.153 226.592C469.353 226.592 470.409 226.952 471.321 227.672C472.281 228.392 472.761 229.424 472.761 230.768C472.761 231.632 472.497 232.352 471.969 232.928C471.489 233.504 470.721 233.792 469.665 233.792C468.753 233.792 468.105 233.6 467.721 233.216C467.337 232.832 467.001 232.448 466.713 232.064C466.473 231.68 466.041 231.488 465.417 231.488C464.985 231.488 464.649 231.656 464.409 231.992C464.217 232.28 464.073 232.856 463.977 233.72C464.313 234.44 464.577 235.208 464.769 236.024C464.961 236.792 465.057 237.608 465.057 238.472C465.057 240.92 464.385 243.032 463.041 244.808C461.697 246.536 459.897 247.856 457.641 248.768C455.433 249.68 452.961 250.136 450.225 250.136H445.761C443.409 250.136 441.537 250.496 440.145 251.216C438.753 251.888 438.057 252.752 438.057 253.808C438.057 254.432 438.345 255.032 438.921 255.608C439.545 256.136 440.529 256.4 441.873 256.4H457.137C459.585 256.4 461.697 256.688 463.473 257.264C465.249 257.84 466.617 258.872 467.577 260.36C468.537 261.848 469.017 263.936 469.017 266.624C469.017 270.416 468.105 273.536 466.281 275.984C464.457 278.48 462.081 280.328 459.153 281.528C456.225 282.728 453.057 283.328 449.649 283.328ZM451.017 280.808C453.273 280.808 455.457 280.328 457.569 279.368C459.729 278.456 461.505 277.112 462.897 275.336C464.289 273.56 464.985 271.424 464.985 268.928C464.985 267.44 464.649 266.36 463.977 265.688C463.305 265.064 462.105 264.752 460.377 264.752H443.457C442.785 265.472 442.257 266.576 441.873 268.064C441.489 269.552 441.297 270.896 441.297 272.096C441.297 274.592 442.137 276.656 443.817 278.288C445.545 279.968 447.945 280.808 451.017 280.808ZM450.297 247.544C451.497 247.544 452.433 247.304 453.105 246.824C453.777 246.344 454.257 245.456 454.545 244.16C454.833 242.816 454.977 240.896 454.977 238.4C454.977 235.76 454.809 233.768 454.473 232.424C454.185 231.08 453.705 230.168 453.033 229.688C452.361 229.208 451.449 228.968 450.297 228.968C449.145 228.968 448.233 229.208 447.561 229.688C446.889 230.168 446.409 231.08 446.121 232.424C445.833 233.768 445.689 235.736 445.689 238.328C445.689 240.92 445.833 242.888 446.121 244.232C446.409 245.528 446.889 246.416 447.561 246.896C448.233 247.328 449.145 247.544 450.297 247.544Z" fill="black"/>
<path d="M56.99 368.014L44.042 334.24H39.83V331.9H60.734V334.24H56.132L62.372 352.414H62.684L70.25 331.9H73.058L81.56 352.414H81.872L87.878 334.24H81.716V331.9H96.38V334.24H90.686L78.986 368.014H76.724L67.832 346.252H67.52L59.252 368.014H56.99ZM126.288 365.83V339.076C126.288 337.256 125.976 336.034 125.352 335.41C124.728 334.734 123.896 334.396 122.856 334.396C121.14 334.396 119.554 335.098 118.098 336.502C116.694 337.906 115.576 339.83 114.744 342.274C113.912 344.666 113.496 347.396 113.496 350.464L111.936 338.374H113.808C114.848 336.086 116.33 334.292 118.254 332.992C120.23 331.64 122.7 330.964 125.664 330.964C129.096 330.964 131.852 331.796 133.932 333.46C136.012 335.072 137.052 337.074 137.052 339.466V365.83H126.288ZM96.4135 367V364.66H118.566V367H96.4135ZM120.984 367V364.66H141.966V367H120.984ZM102.732 365.83V309.436H113.496V365.83H102.732ZM96.4135 310.528V308.188H113.496V310.528H96.4135ZM156.952 367.936C153.884 367.936 151.362 367.13 149.386 365.518C147.41 363.906 146.422 361.774 146.422 359.122C146.422 356.626 147.306 354.468 149.074 352.648C150.894 350.828 153.442 349.45 156.718 348.514C159.994 347.526 163.816 347.032 168.184 347.032V337.906C168.184 336.554 167.69 335.488 166.702 334.708C165.714 333.928 164.414 333.538 162.802 333.538C161.45 333.538 160.28 333.798 159.292 334.318C158.356 334.838 157.888 335.514 157.888 336.346C157.888 337.022 158.148 337.62 158.668 338.14C159.24 338.608 159.526 339.388 159.526 340.48C159.526 341.832 158.98 343.028 157.888 344.068C156.848 345.108 155.574 345.628 154.066 345.628C152.558 345.628 151.31 345.108 150.322 344.068C149.334 343.028 148.84 341.754 148.84 340.246C148.84 338.478 149.516 336.892 150.868 335.488C152.22 334.084 154.092 332.992 156.484 332.212C158.876 331.38 161.58 330.964 164.596 330.964C168.756 330.964 172.188 331.718 174.892 333.226C177.596 334.682 178.948 336.606 178.948 338.998V361.696C178.948 362.164 179.104 362.58 179.416 362.944C179.78 363.308 180.222 363.49 180.742 363.49C181.158 363.49 181.6 363.308 182.068 362.944C182.588 362.58 183.29 361.904 184.174 360.916L185.734 362.71C182.874 366.194 179.624 367.936 175.984 367.936C173.852 367.936 172.162 367.442 170.914 366.454C169.718 365.466 168.912 364.166 168.496 362.554H168.184C167.248 363.906 165.792 365.154 163.816 366.298C161.892 367.39 159.604 367.936 156.952 367.936ZM162.178 363.646C163.842 363.646 165.246 362.918 166.39 361.462C167.586 359.954 168.184 358.004 168.184 355.612V349.45C164.856 349.45 162.282 350.152 160.462 351.556C158.642 352.96 157.732 355.04 157.732 357.796C157.732 359.564 158.096 360.994 158.824 362.086C159.604 363.126 160.722 363.646 162.178 363.646ZM201.414 368.014C198.294 368.014 196.006 367.468 194.55 366.376C193.146 365.232 192.444 363.594 192.444 361.462V334.318H186.126V331.9C188.102 331.744 189.948 331.042 191.664 329.794C193.432 328.546 195.018 326.934 196.422 324.958C197.878 322.982 199.074 320.824 200.01 318.484H203.208V331.9H212.178V334.318H203.208V360.136C203.208 362.476 204.196 363.646 206.172 363.646C207.212 363.646 208.122 363.334 208.902 362.71C209.734 362.034 210.644 360.89 211.632 359.278L213.504 360.37C212.1 363.23 210.462 365.232 208.59 366.376C206.718 367.468 204.326 368.014 201.414 368.014ZM230.872 392.194C229.364 392.194 228.168 391.882 227.284 391.258C226.4 390.686 225.776 389.958 225.412 389.074C225.048 388.242 224.866 387.436 224.866 386.656C224.866 385.2 225.308 384.03 226.192 383.146C227.128 382.262 228.272 381.82 229.624 381.82C230.82 381.82 231.704 382.08 232.276 382.6C232.9 383.12 233.446 383.64 233.914 384.16C234.382 384.68 234.954 384.94 235.63 384.94C236.046 384.94 236.41 384.784 236.722 384.472C237.034 384.16 237.32 383.666 237.58 382.99L257.782 333.226H260.98L239.53 384.394C238.23 387.566 236.826 389.646 235.318 390.634C233.862 391.674 232.38 392.194 230.872 392.194ZM244.444 367.234L227.596 332.68H239.998L249.436 353.272H249.826L244.444 367.234ZM224.242 334.24V331.9H246.94V334.24H224.242ZM251.62 334.24V331.9H265.27V334.24H251.62ZM285.897 368.014C283.193 368.014 280.671 367.572 278.331 366.688C275.991 365.804 273.937 364.53 272.169 362.866C270.401 361.202 268.997 359.252 267.957 357.016C266.969 354.728 266.475 352.206 266.475 349.45C266.475 346.746 266.969 344.276 267.957 342.04C268.997 339.752 270.401 337.802 272.169 336.19C273.937 334.526 275.991 333.252 278.331 332.368C280.671 331.432 283.193 330.964 285.897 330.964C288.601 330.964 291.123 331.432 293.463 332.368C295.803 333.252 297.857 334.526 299.625 336.19C301.445 337.802 302.849 339.752 303.837 342.04C304.877 344.276 305.397 346.746 305.397 349.45C305.397 352.206 304.877 354.728 303.837 357.016C302.849 359.252 301.445 361.202 299.625 362.866C297.857 364.53 295.803 365.804 293.463 366.688C291.123 367.572 288.601 368.014 285.897 368.014ZM285.897 365.284C287.717 365.284 289.173 364.868 290.265 364.036C291.357 363.204 292.137 361.67 292.605 359.434C293.073 357.146 293.307 353.844 293.307 349.528C293.307 345.212 293.073 341.91 292.605 339.622C292.137 337.334 291.357 335.774 290.265 334.942C289.173 334.11 287.717 333.694 285.897 333.694C284.077 333.694 282.621 334.11 281.529 334.942C280.489 335.774 279.735 337.334 279.267 339.622C278.799 341.91 278.565 345.212 278.565 349.528C278.565 353.844 278.799 357.146 279.267 359.434C279.735 361.67 280.489 363.204 281.529 364.036C282.621 364.868 284.077 365.284 285.897 365.284ZM326.212 368.014C323.04 368.014 320.492 367.182 318.568 365.518C316.696 363.802 315.76 361.748 315.76 359.356V333.07H326.524V358.342C326.524 360.474 326.81 361.982 327.382 362.866C328.006 363.75 328.942 364.192 330.19 364.192C331.958 364.192 333.492 363.542 334.792 362.242C336.092 360.89 337.106 359.07 337.834 356.782C338.614 354.494 339.004 351.946 339.004 349.138L340.564 360.838H338.692C337.756 362.97 336.118 364.712 333.778 366.064C331.49 367.364 328.968 368.014 326.212 368.014ZM339.004 367V364.66H355.93V367H339.004ZM309.676 334.24V331.9H326.524V334.24H309.676ZM339.004 365.83V333.07H349.768V365.83H339.004ZM332.608 334.24V331.9H349.768V334.24H332.608ZM423.357 365.83V338.296C423.357 335.696 422.187 334.396 419.847 334.396C418.235 334.396 416.753 335.098 415.401 336.502C414.049 337.906 412.957 339.83 412.125 342.274C411.345 344.666 410.955 347.396 410.955 350.464L409.395 338.374H411.267C412.255 336.086 413.685 334.292 415.557 332.992C417.481 331.64 419.899 330.964 422.811 330.964C426.191 330.964 428.921 331.796 431.001 333.46C433.081 335.072 434.121 337.074 434.121 339.466V365.83H423.357ZM370.785 367V364.66H392.937V367H370.785ZM377.103 365.83V333.148H387.867V365.83H377.103ZM394.965 367V364.66H415.947V367H394.965ZM370.785 334.24V331.9H387.867V334.24H370.785ZM400.269 365.83V338.296C400.269 335.696 399.099 334.396 396.759 334.396C395.147 334.396 393.665 335.098 392.313 336.502C390.961 337.906 389.869 339.83 389.037 342.274C388.257 344.666 387.867 347.396 387.867 350.464L386.307 338.374H388.179C389.167 336.086 390.597 334.292 392.469 332.992C394.393 331.64 396.811 330.964 399.723 330.964C403.103 330.964 405.833 331.796 407.913 333.46C409.993 335.072 411.033 337.074 411.033 339.466V365.83H400.269ZM418.053 367V364.66H439.035V367H418.053ZM463.227 368.014C460.523 368.014 457.975 367.494 455.583 366.454C453.243 365.414 451.163 364.01 449.343 362.242C447.575 360.474 446.197 358.472 445.209 356.236C444.221 354 443.727 351.66 443.727 349.216C443.727 346.2 444.507 343.314 446.067 340.558C447.627 337.75 449.837 335.462 452.697 333.694C455.557 331.874 458.911 330.964 462.759 330.964C465.879 330.964 468.661 331.588 471.105 332.836C473.601 334.084 475.551 335.878 476.955 338.218C478.411 340.506 479.139 343.236 479.139 346.408V347.266H452.073V344.926H468.141V340.168C468.141 335.696 466.269 333.46 462.525 333.46C460.913 333.46 459.613 333.954 458.625 334.942C457.637 335.93 456.909 337.62 456.441 340.012C456.025 342.352 455.817 345.576 455.817 349.684C455.817 353.896 456.051 357.146 456.519 359.434C456.987 361.67 457.793 363.204 458.937 364.036C460.081 364.868 461.641 365.284 463.617 365.284C466.373 365.284 468.869 364.608 471.105 363.256C473.393 361.904 475.291 359.564 476.799 356.236H479.373C478.281 359.824 476.279 362.684 473.367 364.816C470.507 366.948 467.127 368.014 463.227 368.014ZM495.917 367.936C492.849 367.936 490.327 367.13 488.351 365.518C486.375 363.906 485.387 361.774 485.387 359.122C485.387 356.626 486.271 354.468 488.039 352.648C489.859 350.828 492.407 349.45 495.683 348.514C498.959 347.526 502.781 347.032 507.149 347.032V337.906C507.149 336.554 506.655 335.488 505.667 334.708C504.679 333.928 503.379 333.538 501.767 333.538C500.415 333.538 499.245 333.798 498.257 334.318C497.321 334.838 496.853 335.514 496.853 336.346C496.853 337.022 497.113 337.62 497.633 338.14C498.205 338.608 498.491 339.388 498.491 340.48C498.491 341.832 497.945 343.028 496.853 344.068C495.813 345.108 494.539 345.628 493.031 345.628C491.523 345.628 490.275 345.108 489.287 344.068C488.299 343.028 487.805 341.754 487.805 340.246C487.805 338.478 488.481 336.892 489.833 335.488C491.185 334.084 493.057 332.992 495.449 332.212C497.841 331.38 500.545 330.964 503.561 330.964C507.721 330.964 511.153 331.718 513.857 333.226C516.561 334.682 517.913 336.606 517.913 338.998V361.696C517.913 362.164 518.069 362.58 518.381 362.944C518.745 363.308 519.187 363.49 519.707 363.49C520.123 363.49 520.565 363.308 521.033 362.944C521.553 362.58 522.255 361.904 523.139 360.916L524.699 362.71C521.839 366.194 518.589 367.936 514.949 367.936C512.817 367.936 511.127 367.442 509.879 366.454C508.683 365.466 507.877 364.166 507.461 362.554H507.149C506.213 363.906 504.757 365.154 502.781 366.298C500.857 367.39 498.569 367.936 495.917 367.936ZM501.143 363.646C502.807 363.646 504.211 362.918 505.355 361.462C506.551 359.954 507.149 358.004 507.149 355.612V349.45C503.821 349.45 501.247 350.152 499.427 351.556C497.607 352.96 496.697 355.04 496.697 357.796C496.697 359.564 497.061 360.994 497.789 362.086C498.569 363.126 499.687 363.646 501.143 363.646ZM555.745 365.83V338.296C555.745 335.696 554.575 334.396 552.235 334.396C550.519 334.396 548.959 335.098 547.555 336.502C546.151 337.906 545.033 339.83 544.201 342.274C543.369 344.666 542.953 347.396 542.953 350.464L541.393 338.374H543.265C544.305 336.086 545.787 334.292 547.711 332.992C549.687 331.64 552.183 330.964 555.199 330.964C558.579 330.964 561.309 331.796 563.389 333.46C565.469 335.072 566.509 337.074 566.509 339.466V365.83H555.745ZM525.871 367V364.66H548.023V367H525.871ZM532.189 365.83V333.148H542.953V365.83H532.189ZM550.441 367V364.66H571.423V367H550.441ZM525.871 334.24V331.9H542.953V334.24H525.871Z" fill="black"/>
</svg>
